<svg width="35" height="35" viewBox="0 0 35 35" fill="none" xmlns="http://www.w3.org/2000/svg">
<g clip-path="url(#clip0_1394_16)">
<path d="M32 17.84C32 27.1405 26.9413 33 17.5 33C2.5 31.5 3 32 1.5 17.84C1.5 8.53953 7.05869 2.5 16.5 2.5C25.9413 2.5 32 8.53953 32 17.84Z" fill="#4DC85B"/>
<path d="M29.0651 5.62298C25.8679 2.46573 21.61 0.729248 17.085 0.729248C7.7451 0.729248 0.144982 8.21644 0.144982 17.4176C0.144982 20.3568 0.923308 23.2284 2.40365 25.7617L0 34.4066L8.98127 32.0837C11.4536 33.4143 14.2388 34.1134 17.0774 34.1134H17.085C26.4173 34.1134 34.1853 26.6262 34.1853 17.4251C34.1853 12.9673 32.2624 8.78023 29.0651 5.62298V5.62298ZM17.085 31.3019C14.5516 31.3019 12.0717 30.6329 9.9122 29.37L9.40095 29.0693L4.07476 30.445L5.49406 25.3257L5.15831 24.7995C3.74665 22.5894 3.00647 20.0411 3.00647 17.4176C3.00647 9.77251 9.32465 3.54822 17.0926 3.54822C20.8545 3.54822 24.3875 4.99153 27.043 7.61506C29.6985 10.2386 31.3314 13.7191 31.3238 17.4251C31.3238 25.0777 24.8454 31.3019 17.085 31.3019V31.3019ZM24.8072 20.9131C24.3875 20.7026 22.3044 19.6953 21.9152 19.56C21.526 19.4172 21.2437 19.3495 20.9614 19.7705C20.679 20.1914 19.8702 21.1236 19.6184 21.4092C19.3742 21.6874 19.1224 21.725 18.7027 21.5145C16.2151 20.2892 14.5822 19.3269 12.9416 16.5531C12.5066 15.8164 13.3765 15.869 14.1854 14.2754C14.3227 13.9972 14.254 13.7567 14.1472 13.5462C14.0404 13.3357 13.1934 11.2835 12.8424 10.4491C12.499 9.6372 12.148 9.74996 11.8885 9.73493C11.6444 9.71989 11.362 9.71989 11.0797 9.71989C10.7974 9.71989 10.3395 9.82513 9.95036 10.2386C9.56119 10.6595 8.47001 11.6669 8.47001 13.7191C8.47001 15.7713 9.98851 17.7558 10.1945 18.034C10.4082 18.3121 13.1781 22.5218 17.4284 24.3334C20.1144 25.4761 21.1674 25.5738 22.5104 25.3783C23.3269 25.2581 25.0132 24.371 25.3643 23.3938C25.7153 22.4165 25.7153 21.5821 25.6084 21.4092C25.5092 21.2213 25.2269 21.1161 24.8072 20.9131Z" fill="white"/>
</g>
<defs>
<clipPath id="clip0_1394_16">
<rect width="34.7017" height="35" fill="white"/>
</clipPath>
</defs>
</svg>
